<svg xmlns="http://www.w3.org/2000/svg" width="192" height="192" viewBox="0 0 192 192" version="1.1">
	<path d="M 79.500 3.530 C 41.365 13.102, 19.438 33.463, 8.347 69.600 C 5.856 77.716, 5.615 79.910, 5.615 94.500 C 5.615 109.127, 5.852 111.272, 8.374 119.495 C 18.906 153.828, 42.380 177.089, 75.671 186.179 C 86.001 189, 104.491 189.210, 113.942 186.615 C 150.397 176.603, 176.031 142.881, 179.455 100.434 C 183.043 55.945, 155.912 13.748, 117.742 4.453 C 108.439 2.187, 86.918 1.668, 79.500 3.530 M 79.561 12.581 C 64.078 16.054, 52.061 22.795, 40.500 34.492 C 24.407 50.774, 16 71.880, 16 96 C 16 139.611, 45.153 174.723, 85.862 180.144 C 125.437 185.412, 162.818 156.146, 171.548 113.058 C 173.810 101.898, 173.112 82.763, 170.051 72 C 161.902 43.342, 139.902 20.602, 113.500 13.547 C 104.582 11.164, 87.984 10.691, 79.561 12.581 M 51.006 88.225 C 51.009 108.644, 51.416 121.969, 52.114 124.500 C 54.368 132.676, 61.055 139.307, 70.947 143.175 C 78.726 146.217, 103.372 147.006, 112.940 144.520 C 124.631 141.482, 131.469 136.454, 135.405 128 C 137.380 123.758, 137.517 121.566, 137.800 89.724 L 138.099 55.949 122.300 56.224 L 106.500 56.500 106 85.500 C 105.476 115.885, 105.264 117.301, 100.770 120.449 C 98.185 122.259, 92.146 122.479, 88.657 120.890 C 83.904 118.724, 83.548 116.494, 83.006 85.500 L 82.500 56.500 66.750 56.225 L 51 55.949 51.006 88.225" stroke="none" fill="black" fill-rule="evenodd"/>
</svg>